<svg width="1280" height="720" viewBox="0 0 1280 720" fill="none" xmlns="http://www.w3.org/2000/svg">
  <rect width="1280" height="720" rx="36" fill="url(#bg)"/>
  <circle cx="1040" cy="116" r="190" fill="#60A5FA" fill-opacity="0.16"/>
  <circle cx="242" cy="620" r="170" fill="#A78BFA" fill-opacity="0.14"/>
  <rect x="126" y="98" width="1028" height="524" rx="28" fill="#020617" fill-opacity="0.34" stroke="#BFDBFE" stroke-opacity="0.22" stroke-width="2"/>
  <rect x="174" y="144" width="274" height="432" rx="24" fill="#F8FAFC" fill-opacity="0.92"/>
  <rect x="504" y="168" width="184" height="110" rx="22" fill="#0EA5E9" fill-opacity="0.92"/>
  <rect x="752" y="168" width="184" height="110" rx="22" fill="#8B5CF6" fill-opacity="0.92"/>
  <rect x="1000" y="168" width="106" height="110" rx="22" fill="#10B981" fill-opacity="0.92"/>
  <circle cx="614" cy="420" r="118" fill="#0F172A" fill-opacity="0.5"/>
  <circle cx="614" cy="420" r="80" fill="url(#ring1)"/>
  <circle cx="614" cy="420" r="42" fill="#E0F2FE"/>
  <circle cx="876" cy="420" r="118" fill="#0F172A" fill-opacity="0.5"/>
  <circle cx="876" cy="420" r="80" fill="url(#ring2)"/>
  <circle cx="876" cy="420" r="42" fill="#EDE9FE"/>
  <path d="M694 420H796" stroke="#93C5FD" stroke-width="10" stroke-linecap="round" stroke-dasharray="18 18"/>
  <path d="M288 228H374" stroke="#0F172A" stroke-width="18" stroke-linecap="round"/>
  <path d="M216 280H404" stroke="#475569" stroke-width="12" stroke-linecap="round"/>
  <path d="M216 320H378" stroke="#94A3B8" stroke-width="12" stroke-linecap="round"/>
  <path d="M216 360H390" stroke="#94A3B8" stroke-width="12" stroke-linecap="round"/>
  <path d="M216 400H360" stroke="#CBD5E1" stroke-width="12" stroke-linecap="round"/>
  <path d="M216 470H384" stroke="#A78BFA" stroke-width="14" stroke-linecap="round"/>
  <path d="M537 222H654" stroke="#E0F2FE" stroke-width="16" stroke-linecap="round"/>
  <path d="M785 222H902" stroke="#EDE9FE" stroke-width="16" stroke-linecap="round"/>
  <defs>
    <linearGradient id="bg" x1="98" y1="86" x2="1180" y2="650" gradientUnits="userSpaceOnUse">
      <stop stop-color="#0B1120"/>
      <stop offset="0.5" stop-color="#1E3A8A"/>
      <stop offset="1" stop-color="#4C1D95"/>
    </linearGradient>
    <linearGradient id="ring1" x1="534" y1="340" x2="694" y2="500" gradientUnits="userSpaceOnUse">
      <stop stop-color="#38BDF8"/>
      <stop offset="1" stop-color="#0EA5E9"/>
    </linearGradient>
    <linearGradient id="ring2" x1="796" y1="340" x2="956" y2="500" gradientUnits="userSpaceOnUse">
      <stop stop-color="#C084FC"/>
      <stop offset="1" stop-color="#8B5CF6"/>
    </linearGradient>
  </defs>
</svg>
