<svg width="1280" height="720" viewBox="0 0 1280 720" fill="none" xmlns="http://www.w3.org/2000/svg">
  <rect width="1280" height="720" rx="36" fill="url(#bg)"/>
  <circle cx="1100" cy="120" r="170" fill="#34D399" fill-opacity="0.16"/>
  <circle cx="210" cy="590" r="190" fill="#F59E0B" fill-opacity="0.12"/>
  <rect x="102" y="92" width="1076" height="536" rx="30" fill="#F8FAFC" fill-opacity="0.08" stroke="#E2E8F0" stroke-opacity="0.18" stroke-width="2"/>
  <rect x="150" y="140" width="180" height="440" rx="24" fill="#0F172A" fill-opacity="0.46"/>
  <rect x="390" y="150" width="500" height="70" rx="22" fill="#F8FAFC" fill-opacity="0.92"/>
  <rect x="920" y="150" width="190" height="70" rx="22" fill="#10B981"/>
  <rect x="390" y="255" width="340" height="150" rx="24" fill="#0EA5E9" fill-opacity="0.9"/>
  <rect x="760" y="255" width="350" height="150" rx="24" fill="#0F172A" fill-opacity="0.44"/>
  <rect x="390" y="435" width="220" height="110" rx="22" fill="#F8FAFC" fill-opacity="0.92"/>
  <rect x="640" y="435" width="220" height="110" rx="22" fill="#F8FAFC" fill-opacity="0.92"/>
  <rect x="890" y="435" width="220" height="110" rx="22" fill="#F8FAFC" fill-opacity="0.92"/>
  <rect x="182" y="176" width="116" height="16" rx="8" fill="#7DD3FC"/>
  <rect x="182" y="220" width="82" height="12" rx="6" fill="#E2E8F0" fill-opacity="0.9"/>
  <rect x="182" y="262" width="96" height="12" rx="6" fill="#E2E8F0" fill-opacity="0.7"/>
  <rect x="182" y="304" width="76" height="12" rx="6" fill="#E2E8F0" fill-opacity="0.7"/>
  <rect x="182" y="382" width="116" height="16" rx="8" fill="#34D399"/>
  <rect x="182" y="424" width="92" height="12" rx="6" fill="#E2E8F0" fill-opacity="0.8"/>
  <rect x="182" y="466" width="104" height="12" rx="6" fill="#E2E8F0" fill-opacity="0.7"/>
  <path d="M442 318H678" stroke="#E0F2FE" stroke-width="18" stroke-linecap="round"/>
  <path d="M442 352H602" stroke="#E0F2FE" stroke-width="14" stroke-linecap="round" stroke-opacity="0.8"/>
  <path d="M805 316H1068" stroke="#7DD3FC" stroke-width="14" stroke-linecap="round" stroke-opacity="0.8"/>
  <path d="M805 352H1008" stroke="#7DD3FC" stroke-width="14" stroke-linecap="round" stroke-opacity="0.55"/>
  <circle cx="481" cy="489" r="26" fill="#10B981" fill-opacity="0.18"/>
  <circle cx="731" cy="489" r="26" fill="#2563EB" fill-opacity="0.18"/>
  <circle cx="981" cy="489" r="26" fill="#F59E0B" fill-opacity="0.18"/>
  <defs>
    <linearGradient id="bg" x1="70" y1="52" x2="1194" y2="673" gradientUnits="userSpaceOnUse">
      <stop stop-color="#0F172A"/>
      <stop offset="0.55" stop-color="#17324A"/>
      <stop offset="1" stop-color="#0F766E"/>
    </linearGradient>
  </defs>
</svg>
