<svg width="1280" height="720" viewBox="0 0 1280 720" fill="none" xmlns="http://www.w3.org/2000/svg">
  <rect width="1280" height="720" rx="36" fill="url(#bg)"/>
  <circle cx="1060" cy="120" r="185" fill="#38BDF8" fill-opacity="0.14"/>
  <rect x="126" y="96" width="1028" height="528" rx="30" fill="#0F172A" fill-opacity="0.24" stroke="#BFDBFE" stroke-opacity="0.18" stroke-width="2"/>
  <rect x="194" y="148" width="252" height="374" rx="28" fill="#F8FAFC"/>
  <path d="M252 224H388" stroke="#0F172A" stroke-width="18" stroke-linecap="round"/>
  <path d="M252 274H386" stroke="#64748B" stroke-width="12" stroke-linecap="round"/>
  <path d="M252 314H360" stroke="#94A3B8" stroke-width="12" stroke-linecap="round"/>
  <path d="M252 354H374" stroke="#94A3B8" stroke-width="12" stroke-linecap="round"/>
  <rect x="520" y="170" width="214" height="144" rx="26" fill="#F8FAFC" fill-opacity="0.1"/>
  <rect x="774" y="170" width="214" height="144" rx="26" fill="#F8FAFC" fill-opacity="0.1"/>
  <rect x="646" y="362" width="214" height="144" rx="26" fill="#F8FAFC" fill-opacity="0.1"/>
  <path d="M446 332H556" stroke="#93C5FD" stroke-width="10" stroke-linecap="round" stroke-dasharray="16 16"/>
  <path d="M734 242H774" stroke="#93C5FD" stroke-width="10" stroke-linecap="round" stroke-dasharray="16 16"/>
  <path d="M860 434H920" stroke="#93C5FD" stroke-width="10" stroke-linecap="round" stroke-dasharray="16 16"/>
  <rect x="574" y="214" width="104" height="20" rx="10" fill="#E0F2FE"/>
  <rect x="826" y="214" width="104" height="20" rx="10" fill="#E0F2FE"/>
  <rect x="700" y="406" width="104" height="20" rx="10" fill="#E0F2FE"/>
  <path d="M260 570H1018" stroke="#E2E8F0" stroke-width="18" stroke-linecap="round" stroke-opacity="0.18"/>
  <defs>
    <linearGradient id="bg" x1="104" y1="68" x2="1172" y2="652" gradientUnits="userSpaceOnUse">
      <stop stop-color="#0F172A"/>
      <stop offset="0.56" stop-color="#1E3A8A"/>
      <stop offset="1" stop-color="#155E75"/>
    </linearGradient>
  </defs>
</svg>
