<svg width="1280" height="720" viewBox="0 0 1280 720" fill="none" xmlns="http://www.w3.org/2000/svg">
  <rect width="1280" height="720" rx="36" fill="url(#bg)"/>
  <circle cx="1110" cy="110" r="180" fill="#F59E0B" fill-opacity="0.14"/>
  <circle cx="230" cy="610" r="170" fill="#38BDF8" fill-opacity="0.12"/>
  <rect x="124" y="94" width="1032" height="532" rx="30" fill="#0F172A" fill-opacity="0.28" stroke="#FDE68A" stroke-opacity="0.16" stroke-width="2"/>
  <rect x="180" y="150" width="312" height="420" rx="28" fill="#F8FAFC" fill-opacity="0.94"/>
  <rect x="536" y="150" width="560" height="180" rx="28" fill="#F8FAFC" fill-opacity="0.08"/>
  <rect x="536" y="360" width="560" height="210" rx="28" fill="#F8FAFC" fill-opacity="0.08"/>
  <path d="M230 236H418" stroke="#0F172A" stroke-width="18" stroke-linecap="round"/>
  <path d="M230 286H396" stroke="#64748B" stroke-width="12" stroke-linecap="round"/>
  <path d="M230 326H366" stroke="#94A3B8" stroke-width="12" stroke-linecap="round"/>
  <path d="M230 406L278 372L334 432L396 350" stroke="#10B981" stroke-width="12" stroke-linecap="round" stroke-linejoin="round"/>
  <circle cx="278" cy="372" r="10" fill="#10B981"/>
  <circle cx="334" cy="432" r="10" fill="#10B981"/>
  <circle cx="396" cy="350" r="10" fill="#10B981"/>
  <rect x="584" y="198" width="96" height="84" rx="20" fill="#F59E0B"/>
  <rect x="716" y="174" width="96" height="108" rx="20" fill="#FB7185"/>
  <rect x="848" y="214" width="96" height="68" rx="20" fill="#38BDF8"/>
  <rect x="980" y="156" width="68" height="126" rx="20" fill="#8B5CF6"/>
  <path d="M592 430H1042" stroke="#CBD5E1" stroke-width="14" stroke-linecap="round"/>
  <path d="M592 474H1006" stroke="#94A3B8" stroke-width="12" stroke-linecap="round"/>
  <path d="M592 518H888" stroke="#64748B" stroke-width="12" stroke-linecap="round"/>
  <circle cx="1080" cy="458" r="42" fill="#F59E0B" fill-opacity="0.16"/>
  <path d="M1060 458H1100" stroke="#FDE68A" stroke-width="10" stroke-linecap="round"/>
  <path d="M1080 438V478" stroke="#FDE68A" stroke-width="10" stroke-linecap="round"/>
  <defs>
    <linearGradient id="bg" x1="110" y1="72" x2="1178" y2="648" gradientUnits="userSpaceOnUse">
      <stop stop-color="#111827"/>
      <stop offset="0.5" stop-color="#1F2937"/>
      <stop offset="1" stop-color="#7C2D12"/>
    </linearGradient>
  </defs>
</svg>
