<svg width="1280" height="720" viewBox="0 0 1280 720" fill="none" xmlns="http://www.w3.org/2000/svg">
  <rect width="1280" height="720" rx="36" fill="url(#bg)"/>
  <circle cx="1060" cy="100" r="180" fill="#22C55E" fill-opacity="0.16"/>
  <rect x="116" y="102" width="1048" height="516" rx="28" fill="#0B1220" fill-opacity="0.42" stroke="#A7F3D0" stroke-opacity="0.22" stroke-width="2"/>
  <rect x="168" y="150" width="944" height="120" rx="26" fill="#F8FAFC" fill-opacity="0.08"/>
  <rect x="168" y="314" width="300" height="248" rx="26" fill="#F8FAFC" fill-opacity="0.08"/>
  <rect x="502" y="314" width="610" height="248" rx="26" fill="#F8FAFC" fill-opacity="0.08"/>
  <circle cx="266" cy="210" r="44" fill="#10B981"/>
  <circle cx="446" cy="210" r="44" fill="#22C55E" fill-opacity="0.72"/>
  <circle cx="626" cy="210" r="44" fill="#F59E0B" fill-opacity="0.82"/>
  <circle cx="806" cy="210" r="44" fill="#38BDF8" fill-opacity="0.82"/>
  <circle cx="986" cy="210" r="44" fill="#A78BFA" fill-opacity="0.82"/>
  <path d="M310 210H402" stroke="#A7F3D0" stroke-width="12" stroke-linecap="round"/>
  <path d="M490 210H582" stroke="#A7F3D0" stroke-width="12" stroke-linecap="round"/>
  <path d="M670 210H762" stroke="#A7F3D0" stroke-width="12" stroke-linecap="round"/>
  <path d="M850 210H942" stroke="#A7F3D0" stroke-width="12" stroke-linecap="round"/>
  <path d="M248 394H390" stroke="#E2E8F0" stroke-width="14" stroke-linecap="round"/>
  <path d="M216 446H420" stroke="#64748B" stroke-width="12" stroke-linecap="round"/>
  <path d="M216 488H390" stroke="#64748B" stroke-width="12" stroke-linecap="round"/>
  <path d="M216 530H358" stroke="#64748B" stroke-width="12" stroke-linecap="round"/>
  <path d="M564 384L634 444L720 362L812 480L900 408L986 462L1048 386" stroke="#22C55E" stroke-width="14" stroke-linecap="round" stroke-linejoin="round"/>
  <circle cx="634" cy="444" r="12" fill="#A7F3D0"/>
  <circle cx="720" cy="362" r="12" fill="#A7F3D0"/>
  <circle cx="812" cy="480" r="12" fill="#A7F3D0"/>
  <circle cx="900" cy="408" r="12" fill="#A7F3D0"/>
  <circle cx="986" cy="462" r="12" fill="#A7F3D0"/>
  <defs>
    <linearGradient id="bg" x1="120" y1="70" x2="1180" y2="650" gradientUnits="userSpaceOnUse">
      <stop stop-color="#07111E"/>
      <stop offset="0.52" stop-color="#123B52"/>
      <stop offset="1" stop-color="#0F766E"/>
    </linearGradient>
  </defs>
</svg>
