<svg width="1280" height="720" viewBox="0 0 1280 720" fill="none" xmlns="http://www.w3.org/2000/svg">
  <rect width="1280" height="720" rx="36" fill="url(#bg)"/>
  <circle cx="1080" cy="110" r="178" fill="#60A5FA" fill-opacity="0.12"/>
  <rect x="118" y="100" width="1044" height="520" rx="30" fill="#0F172A" fill-opacity="0.24" stroke="#C7D2FE" stroke-opacity="0.18" stroke-width="2"/>
  <rect x="176" y="148" width="286" height="424" rx="28" fill="#F8FAFC" fill-opacity="0.95"/>
  <rect x="516" y="148" width="594" height="110" rx="26" fill="#F8FAFC" fill-opacity="0.08"/>
  <rect x="516" y="286" width="594" height="286" rx="26" fill="#F8FAFC" fill-opacity="0.08"/>
  <path d="M234 218H382" stroke="#0F172A" stroke-width="18" stroke-linecap="round"/>
  <rect x="232" y="272" width="168" height="46" rx="16" fill="#2563EB" fill-opacity="0.14"/>
  <rect x="232" y="342" width="168" height="46" rx="16" fill="#10B981" fill-opacity="0.14"/>
  <rect x="232" y="412" width="168" height="46" rx="16" fill="#F59E0B" fill-opacity="0.14"/>
  <path d="M562 204H700" stroke="#DBEAFE" stroke-width="16" stroke-linecap="round"/>
  <path d="M738 204H850" stroke="#BFDBFE" stroke-width="16" stroke-linecap="round"/>
  <path d="M888 204H1024" stroke="#A5B4FC" stroke-width="16" stroke-linecap="round"/>
  <path d="M570 340H1040" stroke="#E2E8F0" stroke-width="14" stroke-linecap="round"/>
  <path d="M570 392H980" stroke="#94A3B8" stroke-width="12" stroke-linecap="round"/>
  <path d="M570 444H920" stroke="#94A3B8" stroke-width="12" stroke-linecap="round"/>
  <path d="M570 496H842" stroke="#94A3B8" stroke-width="12" stroke-linecap="round"/>
  <path d="M434 360C486 360 486 230 538 230" stroke="#60A5FA" stroke-width="12" stroke-linecap="round"/>
  <path d="M434 430C504 430 504 388 574 388" stroke="#34D399" stroke-width="12" stroke-linecap="round"/>
  <path d="M434 500C522 500 522 500 610 500" stroke="#F59E0B" stroke-width="12" stroke-linecap="round"/>
  <circle cx="434" cy="360" r="16" fill="#2563EB"/>
  <circle cx="434" cy="430" r="16" fill="#10B981"/>
  <circle cx="434" cy="500" r="16" fill="#F59E0B"/>
  <defs>
    <linearGradient id="bg" x1="108" y1="72" x2="1176" y2="652" gradientUnits="userSpaceOnUse">
      <stop stop-color="#0B1120"/>
      <stop offset="0.55" stop-color="#1D4ED8"/>
      <stop offset="1" stop-color="#0F766E"/>
    </linearGradient>
  </defs>
</svg>
